<svg width="17" height="12" viewBox="0 0 17 12" fill="none" xmlns="http://www.w3.org/2000/svg">
<path d="M16.1465 2.03711C16.498 3.26758 16.498 5.9043 16.498 5.9043C16.498 5.9043 16.498 8.51172 16.1465 9.77148C15.9707 10.4746 15.4141 11.002 14.7402 11.1777C13.4805 11.5 8.5 11.5 8.5 11.5C8.5 11.5 3.49023 11.5 2.23047 11.1777C1.55664 11.002 1 10.4746 0.824219 9.77148C0.472656 8.51172 0.472656 5.9043 0.472656 5.9043C0.472656 5.9043 0.472656 3.26758 0.824219 2.03711C1 1.33398 1.55664 0.777344 2.23047 0.601562C3.49023 0.25 8.5 0.25 8.5 0.25C8.5 0.25 13.4805 0.25 14.7402 0.601562C15.4141 0.777344 15.9707 1.33398 16.1465 2.03711ZM6.85938 8.27734L11.0195 5.9043L6.85938 3.53125V8.27734Z" fill="white"/>
</svg>
